<mxfile host="app.diagrams.net" modified="2021-11-18T08:07:12.274Z" agent="5.0 (Macintosh; Intel Mac OS X 10_15_7) AppleWebKit/537.36 (KHTML, like Gecko) Chrome/95.0.4638.69 Safari/537.36" etag="aZ81hBpwAq7fxyqRuYhk" version="15.7.4" type="github">
  <diagram id="uweNZI2_eZ_7GisBmQ8j" name="第 1 页">
    <mxGraphModel dx="1350" dy="735" grid="1" gridSize="10" guides="1" tooltips="1" connect="1" arrows="1" fold="1" page="1" pageScale="1" pageWidth="827" pageHeight="1169" math="0" shadow="0">
      <root>
        <mxCell id="0" />
        <mxCell id="1" parent="0" />
        <mxCell id="zEQdMj81xNYRxHrbxZHM-1" value="小程序用户" style="rounded=1;whiteSpace=wrap;html=1;labelBackgroundColor=default;fontColor=#000000;" vertex="1" parent="1">
          <mxGeometry x="120" y="140" width="120" height="50" as="geometry" />
        </mxCell>
        <mxCell id="zEQdMj81xNYRxHrbxZHM-2" value="" style="endArrow=none;dashed=1;html=1;rounded=0;fontColor=#000000;entryX=0.5;entryY=1;entryDx=0;entryDy=0;" edge="1" parent="1" target="zEQdMj81xNYRxHrbxZHM-1">
          <mxGeometry width="50" height="50" relative="1" as="geometry">
            <mxPoint x="180" y="1400" as="sourcePoint" />
            <mxPoint x="210" y="190" as="targetPoint" />
          </mxGeometry>
        </mxCell>
        <mxCell id="zEQdMj81xNYRxHrbxZHM-3" value="" style="rounded=0;whiteSpace=wrap;html=1;labelBackgroundColor=default;fontColor=#000000;" vertex="1" parent="1">
          <mxGeometry x="157" y="300" width="40" height="400" as="geometry" />
        </mxCell>
        <mxCell id="zEQdMj81xNYRxHrbxZHM-4" value="&lt;p class=&quot;MsoNormal&quot; style=&quot;margin: 0pt 0pt 0.0001pt ; text-align: justify&quot;&gt;&lt;font face=&quot;calibri&quot;&gt;&lt;span style=&quot;font-size: 14px&quot;&gt;sephora-activity-service&lt;/span&gt;&lt;/font&gt;&lt;br&gt;&lt;/p&gt;" style="rounded=1;whiteSpace=wrap;html=1;labelBackgroundColor=default;fontColor=#000000;" vertex="1" parent="1">
          <mxGeometry x="705.5" y="140" width="190" height="50" as="geometry" />
        </mxCell>
        <mxCell id="zEQdMj81xNYRxHrbxZHM-5" value="" style="endArrow=none;dashed=1;html=1;rounded=0;fontColor=#000000;entryX=0.5;entryY=1;entryDx=0;entryDy=0;startArrow=none;" edge="1" parent="1" source="zEQdMj81xNYRxHrbxZHM-8">
          <mxGeometry width="50" height="50" relative="1" as="geometry">
            <mxPoint x="797.5" y="1756" as="sourcePoint" />
            <mxPoint x="797.5" y="190" as="targetPoint" />
          </mxGeometry>
        </mxCell>
        <mxCell id="zEQdMj81xNYRxHrbxZHM-6" style="edgeStyle=orthogonalEdgeStyle;rounded=0;orthogonalLoop=1;jettySize=auto;html=1;entryX=0;entryY=0.5;entryDx=0;entryDy=0;fontColor=#000000;" edge="1" parent="1">
          <mxGeometry relative="1" as="geometry">
            <mxPoint x="818" y="523" as="sourcePoint" />
            <mxPoint x="1050" y="523" as="targetPoint" />
          </mxGeometry>
        </mxCell>
        <mxCell id="zEQdMj81xNYRxHrbxZHM-7" style="edgeStyle=orthogonalEdgeStyle;rounded=0;orthogonalLoop=1;jettySize=auto;html=1;fontColor=#000000;entryX=0;entryY=0.5;entryDx=0;entryDy=0;" edge="1" parent="1">
          <mxGeometry relative="1" as="geometry">
            <mxPoint x="1258" y="840" as="targetPoint" />
            <mxPoint x="818" y="840" as="sourcePoint" />
          </mxGeometry>
        </mxCell>
        <mxCell id="zEQdMj81xNYRxHrbxZHM-8" value="" style="rounded=0;whiteSpace=wrap;html=1;labelBackgroundColor=default;fontColor=#000000;" vertex="1" parent="1">
          <mxGeometry x="783" y="300" width="35" height="1010" as="geometry" />
        </mxCell>
        <mxCell id="zEQdMj81xNYRxHrbxZHM-9" value="" style="endArrow=none;dashed=1;html=1;rounded=0;fontColor=#000000;entryX=0.5;entryY=1;entryDx=0;entryDy=0;" edge="1" parent="1" target="zEQdMj81xNYRxHrbxZHM-8">
          <mxGeometry width="50" height="50" relative="1" as="geometry">
            <mxPoint x="801" y="1420" as="sourcePoint" />
            <mxPoint x="797.5" y="190" as="targetPoint" />
          </mxGeometry>
        </mxCell>
        <mxCell id="zEQdMj81xNYRxHrbxZHM-10" value="" style="endArrow=classic;html=1;rounded=0;fontColor=#000000;entryX=0;entryY=0;entryDx=0;entryDy=0;" edge="1" parent="1" target="zEQdMj81xNYRxHrbxZHM-14">
          <mxGeometry width="50" height="50" relative="1" as="geometry">
            <mxPoint x="200" y="300" as="sourcePoint" />
            <mxPoint x="490" y="300" as="targetPoint" />
          </mxGeometry>
        </mxCell>
        <mxCell id="zEQdMj81xNYRxHrbxZHM-11" value="gateway" style="rounded=1;whiteSpace=wrap;html=1;labelBackgroundColor=default;fontColor=#000000;" vertex="1" parent="1">
          <mxGeometry x="437" y="140" width="120" height="50" as="geometry" />
        </mxCell>
        <mxCell id="zEQdMj81xNYRxHrbxZHM-12" value="" style="endArrow=none;dashed=1;html=1;rounded=0;fontColor=#000000;entryX=0.5;entryY=1;entryDx=0;entryDy=0;" edge="1" parent="1">
          <mxGeometry width="50" height="50" relative="1" as="geometry">
            <mxPoint x="497.00000000000045" y="1410" as="sourcePoint" />
            <mxPoint x="496.5" y="190" as="targetPoint" />
          </mxGeometry>
        </mxCell>
        <mxCell id="zEQdMj81xNYRxHrbxZHM-13" style="edgeStyle=orthogonalEdgeStyle;rounded=0;orthogonalLoop=1;jettySize=auto;html=1;exitX=1.027;exitY=0.035;exitDx=0;exitDy=0;entryX=0;entryY=0;entryDx=0;entryDy=0;fontColor=#000000;exitPerimeter=0;" edge="1" parent="1" source="zEQdMj81xNYRxHrbxZHM-14">
          <mxGeometry relative="1" as="geometry">
            <Array as="points">
              <mxPoint x="518" y="316" />
            </Array>
            <mxPoint x="547" y="316" as="sourcePoint" />
            <mxPoint x="783" y="316.00000000000045" as="targetPoint" />
          </mxGeometry>
        </mxCell>
        <mxCell id="zEQdMj81xNYRxHrbxZHM-14" value="" style="rounded=0;whiteSpace=wrap;html=1;labelBackgroundColor=default;fontColor=#000000;" vertex="1" parent="1">
          <mxGeometry x="477" y="300" width="40" height="400" as="geometry" />
        </mxCell>
        <mxCell id="zEQdMj81xNYRxHrbxZHM-15" value="判断活动是否存在" style="edgeStyle=orthogonalEdgeStyle;rounded=0;orthogonalLoop=1;jettySize=auto;html=1;exitX=1;exitY=0;exitDx=0;exitDy=0;fontColor=#000000;" edge="1" parent="1" source="zEQdMj81xNYRxHrbxZHM-8">
          <mxGeometry relative="1" as="geometry">
            <mxPoint x="818" y="370" as="targetPoint" />
            <Array as="points">
              <mxPoint x="880" y="300" />
              <mxPoint x="880" y="370" />
              <mxPoint x="818" y="370" />
            </Array>
          </mxGeometry>
        </mxCell>
        <mxCell id="zEQdMj81xNYRxHrbxZHM-16" value="DB" style="rounded=1;whiteSpace=wrap;html=1;labelBackgroundColor=default;fontColor=#000000;" vertex="1" parent="1">
          <mxGeometry x="1010" y="140" width="120" height="50" as="geometry" />
        </mxCell>
        <mxCell id="zEQdMj81xNYRxHrbxZHM-17" value="" style="endArrow=none;dashed=1;html=1;rounded=0;fontColor=#000000;entryX=0.5;entryY=1;entryDx=0;entryDy=0;startArrow=none;" edge="1" parent="1">
          <mxGeometry width="50" height="50" relative="1" as="geometry">
            <mxPoint x="1069" y="1411.111083984375" as="sourcePoint" />
            <mxPoint x="1069.46" y="190" as="targetPoint" />
            <Array as="points" />
          </mxGeometry>
        </mxCell>
        <mxCell id="zEQdMj81xNYRxHrbxZHM-18" value="写入/更新giftEvent到DB" style="text;html=1;align=center;verticalAlign=middle;resizable=0;points=[];autosize=1;strokeColor=none;fillColor=none;fontColor=#000000;" vertex="1" parent="1">
          <mxGeometry x="880" y="498" width="140" height="20" as="geometry" />
        </mxCell>
        <mxCell id="zEQdMj81xNYRxHrbxZHM-19" value="Redis" style="rounded=1;whiteSpace=wrap;html=1;labelBackgroundColor=default;fontColor=#000000;" vertex="1" parent="1">
          <mxGeometry x="1220" y="140" width="120" height="50" as="geometry" />
        </mxCell>
        <mxCell id="zEQdMj81xNYRxHrbxZHM-20" value="" style="endArrow=none;dashed=1;html=1;rounded=0;fontColor=#000000;entryX=0.5;entryY=1;entryDx=0;entryDy=0;startArrow=none;" edge="1" parent="1" source="zEQdMj81xNYRxHrbxZHM-21">
          <mxGeometry width="50" height="50" relative="1" as="geometry">
            <mxPoint x="1279" y="730" as="sourcePoint" />
            <mxPoint x="1279.46" y="190" as="targetPoint" />
            <Array as="points" />
          </mxGeometry>
        </mxCell>
        <mxCell id="zEQdMj81xNYRxHrbxZHM-21" value="" style="rounded=0;whiteSpace=wrap;html=1;labelBackgroundColor=default;fontColor=#000000;" vertex="1" parent="1">
          <mxGeometry x="1258" y="760" width="41" height="170" as="geometry" />
        </mxCell>
        <mxCell id="zEQdMj81xNYRxHrbxZHM-22" value="" style="endArrow=none;dashed=1;html=1;rounded=0;fontColor=#000000;entryX=0.5;entryY=1;entryDx=0;entryDy=0;startArrow=none;" edge="1" parent="1" target="zEQdMj81xNYRxHrbxZHM-21">
          <mxGeometry width="50" height="50" relative="1" as="geometry">
            <mxPoint x="1279" y="1420" as="sourcePoint" />
            <mxPoint x="1279.46" y="190" as="targetPoint" />
            <Array as="points" />
          </mxGeometry>
        </mxCell>
        <mxCell id="zEQdMj81xNYRxHrbxZHM-23" value="写入/更新活动缓存" style="text;html=1;align=center;verticalAlign=middle;resizable=0;points=[];autosize=1;strokeColor=none;fillColor=none;fontColor=#000000;" vertex="1" parent="1">
          <mxGeometry x="903" y="820" width="110" height="20" as="geometry" />
        </mxCell>
        <mxCell id="zEQdMj81xNYRxHrbxZHM-24" value="" style="endArrow=block;dashed=1;endFill=0;endSize=12;html=1;rounded=0;fontColor=#000000;exitX=0;exitY=1;exitDx=0;exitDy=0;" edge="1" parent="1" source="zEQdMj81xNYRxHrbxZHM-21">
          <mxGeometry width="160" relative="1" as="geometry">
            <mxPoint x="1248" y="900" as="sourcePoint" />
            <mxPoint x="818" y="930" as="targetPoint" />
          </mxGeometry>
        </mxCell>
        <mxCell id="zEQdMj81xNYRxHrbxZHM-25" value="" style="endArrow=block;dashed=1;endFill=0;endSize=12;html=1;rounded=0;fontColor=#000000;exitX=0;exitY=1;exitDx=0;exitDy=0;" edge="1" parent="1">
          <mxGeometry width="160" relative="1" as="geometry">
            <mxPoint x="782" y="659" as="sourcePoint" />
            <mxPoint x="550" y="659" as="targetPoint" />
          </mxGeometry>
        </mxCell>
        <mxCell id="zEQdMj81xNYRxHrbxZHM-26" value="" style="endArrow=block;dashed=1;endFill=0;endSize=12;html=1;rounded=0;fontColor=#000000;exitX=0;exitY=1;exitDx=0;exitDy=0;" edge="1" parent="1">
          <mxGeometry width="160" relative="1" as="geometry">
            <mxPoint x="1049" y="598" as="sourcePoint" />
            <mxPoint x="820" y="598" as="targetPoint" />
          </mxGeometry>
        </mxCell>
        <mxCell id="zEQdMj81xNYRxHrbxZHM-27" value="" style="endArrow=block;dashed=1;endFill=0;endSize=12;html=1;rounded=0;fontColor=#000000;exitX=0;exitY=1;exitDx=0;exitDy=0;entryX=1.028;entryY=0.901;entryDx=0;entryDy=0;entryPerimeter=0;" edge="1" parent="1" target="zEQdMj81xNYRxHrbxZHM-3">
          <mxGeometry width="160" relative="1" as="geometry">
            <mxPoint x="477.00000000000045" y="660" as="sourcePoint" />
            <mxPoint x="245" y="660" as="targetPoint" />
          </mxGeometry>
        </mxCell>
        <mxCell id="zEQdMj81xNYRxHrbxZHM-28" value="" style="rounded=0;whiteSpace=wrap;html=1;labelBackgroundColor=default;fontColor=#000000;" vertex="1" parent="1">
          <mxGeometry x="1050" y="451" width="40" height="150" as="geometry" />
        </mxCell>
        <mxCell id="zEQdMj81xNYRxHrbxZHM-30" value="验证是否自己给自己助力" style="edgeStyle=orthogonalEdgeStyle;rounded=0;orthogonalLoop=1;jettySize=auto;html=1;exitX=1;exitY=0;exitDx=0;exitDy=0;fontColor=#000000;" edge="1" parent="1">
          <mxGeometry x="0.0412" y="20" relative="1" as="geometry">
            <mxPoint x="818" y="461" as="targetPoint" />
            <Array as="points">
              <mxPoint x="880" y="391" />
              <mxPoint x="880" y="461" />
              <mxPoint x="818" y="461" />
            </Array>
            <mxPoint x="818" y="391" as="sourcePoint" />
            <mxPoint as="offset" />
          </mxGeometry>
        </mxCell>
        <mxCell id="zEQdMj81xNYRxHrbxZHM-31" style="edgeStyle=orthogonalEdgeStyle;rounded=0;orthogonalLoop=1;jettySize=auto;html=1;entryX=0;entryY=0.5;entryDx=0;entryDy=0;fontColor=#000000;" edge="1" parent="1">
          <mxGeometry relative="1" as="geometry">
            <mxPoint x="818" y="692" as="sourcePoint" />
            <mxPoint x="1050" y="692" as="targetPoint" />
          </mxGeometry>
        </mxCell>
        <mxCell id="zEQdMj81xNYRxHrbxZHM-32" value="写入/更新活动相关的券/商品到DB" style="text;html=1;align=center;verticalAlign=middle;resizable=0;points=[];autosize=1;strokeColor=none;fillColor=none;fontColor=#000000;" vertex="1" parent="1">
          <mxGeometry x="855" y="667" width="190" height="20" as="geometry" />
        </mxCell>
        <mxCell id="zEQdMj81xNYRxHrbxZHM-33" value="" style="endArrow=block;dashed=1;endFill=0;endSize=12;html=1;rounded=0;fontColor=#000000;exitX=0;exitY=1;exitDx=0;exitDy=0;" edge="1" parent="1">
          <mxGeometry width="160" relative="1" as="geometry">
            <mxPoint x="1049" y="767" as="sourcePoint" />
            <mxPoint x="820" y="767" as="targetPoint" />
          </mxGeometry>
        </mxCell>
        <mxCell id="zEQdMj81xNYRxHrbxZHM-34" value="" style="rounded=0;whiteSpace=wrap;html=1;labelBackgroundColor=default;fontColor=#000000;" vertex="1" parent="1">
          <mxGeometry x="1050" y="620" width="40" height="150" as="geometry" />
        </mxCell>
        <mxCell id="zEQdMj81xNYRxHrbxZHM-35" value="Mq" style="rounded=1;whiteSpace=wrap;html=1;labelBackgroundColor=default;fontColor=#000000;" vertex="1" parent="1">
          <mxGeometry x="1424" y="140" width="120" height="50" as="geometry" />
        </mxCell>
        <mxCell id="zEQdMj81xNYRxHrbxZHM-36" value="" style="endArrow=none;dashed=1;html=1;rounded=0;fontColor=#000000;entryX=0.5;entryY=1;entryDx=0;entryDy=0;startArrow=none;" edge="1" parent="1" source="zEQdMj81xNYRxHrbxZHM-37">
          <mxGeometry width="50" height="50" relative="1" as="geometry">
            <mxPoint x="1483" y="730" as="sourcePoint" />
            <mxPoint x="1483.46" y="190" as="targetPoint" />
            <Array as="points" />
          </mxGeometry>
        </mxCell>
        <mxCell id="zEQdMj81xNYRxHrbxZHM-37" value="" style="rounded=0;whiteSpace=wrap;html=1;labelBackgroundColor=default;fontColor=#000000;" vertex="1" parent="1">
          <mxGeometry x="1463.5" y="1010" width="41" height="270" as="geometry" />
        </mxCell>
        <mxCell id="zEQdMj81xNYRxHrbxZHM-38" value="" style="endArrow=none;dashed=1;html=1;rounded=0;fontColor=#000000;entryX=0.5;entryY=1;entryDx=0;entryDy=0;startArrow=none;" edge="1" parent="1" target="zEQdMj81xNYRxHrbxZHM-37">
          <mxGeometry width="50" height="50" relative="1" as="geometry">
            <mxPoint x="1484" y="1420" as="sourcePoint" />
            <mxPoint x="1483.46" y="190" as="targetPoint" />
            <Array as="points" />
          </mxGeometry>
        </mxCell>
        <mxCell id="zEQdMj81xNYRxHrbxZHM-39" style="edgeStyle=orthogonalEdgeStyle;rounded=0;orthogonalLoop=1;jettySize=auto;html=1;fontColor=#000000;" edge="1" parent="1">
          <mxGeometry relative="1" as="geometry">
            <mxPoint x="1460" y="1050" as="targetPoint" />
            <mxPoint x="818" y="1050" as="sourcePoint" />
          </mxGeometry>
        </mxCell>
        <mxCell id="zEQdMj81xNYRxHrbxZHM-40" value="发送延时消息活动结束后删除购物车的活动商品" style="text;html=1;align=center;verticalAlign=middle;resizable=0;points=[];autosize=1;strokeColor=none;fillColor=none;fontColor=#000000;" vertex="1" parent="1">
          <mxGeometry x="940" y="1022" width="270" height="20" as="geometry" />
        </mxCell>
        <mxCell id="zEQdMj81xNYRxHrbxZHM-41" style="edgeStyle=orthogonalEdgeStyle;rounded=0;orthogonalLoop=1;jettySize=auto;html=1;fontColor=#000000;" edge="1" parent="1">
          <mxGeometry relative="1" as="geometry">
            <mxPoint x="1460" y="1180" as="targetPoint" />
            <mxPoint x="818" y="1180" as="sourcePoint" />
          </mxGeometry>
        </mxCell>
        <mxCell id="zEQdMj81xNYRxHrbxZHM-42" value="发送sku开关消息" style="text;html=1;align=center;verticalAlign=middle;resizable=0;points=[];autosize=1;strokeColor=none;fillColor=none;fontColor=#000000;" vertex="1" parent="1">
          <mxGeometry x="1010" y="1150" width="110" height="20" as="geometry" />
        </mxCell>
        <mxCell id="zEQdMj81xNYRxHrbxZHM-43" value="" style="endArrow=block;dashed=1;endFill=0;endSize=12;html=1;rounded=0;fontColor=#000000;exitX=0;exitY=1;exitDx=0;exitDy=0;" edge="1" parent="1">
          <mxGeometry width="160" relative="1" as="geometry">
            <mxPoint x="1461.5" y="1120" as="sourcePoint" />
            <mxPoint x="818" y="1120" as="targetPoint" />
          </mxGeometry>
        </mxCell>
        <mxCell id="zEQdMj81xNYRxHrbxZHM-44" value="" style="endArrow=block;dashed=1;endFill=0;endSize=12;html=1;rounded=0;fontColor=#000000;exitX=0;exitY=1;exitDx=0;exitDy=0;" edge="1" parent="1">
          <mxGeometry width="160" relative="1" as="geometry">
            <mxPoint x="1461.5" y="1252" as="sourcePoint" />
            <mxPoint x="818" y="1252" as="targetPoint" />
          </mxGeometry>
        </mxCell>
        <mxCell id="zEQdMj81xNYRxHrbxZHM-45" value="&lt;font face=&quot;helvetica neue&quot;&gt;&lt;span style=&quot;font-size: 13px&quot;&gt;/v1/activity/gift/event-detail&lt;/span&gt;&lt;/font&gt;" style="text;html=1;align=center;verticalAlign=middle;resizable=0;points=[];autosize=1;strokeColor=none;fillColor=none;fontColor=#000000;" vertex="1" parent="1">
          <mxGeometry x="237" y="276" width="170" height="20" as="geometry" />
        </mxCell>
        <mxCell id="zEQdMj81xNYRxHrbxZHM-46" value="&lt;font face=&quot;helvetica neue&quot;&gt;&lt;span style=&quot;font-size: 13px&quot;&gt;/v1/activity/gift/event-detail&lt;/span&gt;&lt;/font&gt;" style="text;html=1;align=center;verticalAlign=middle;resizable=0;points=[];autosize=1;strokeColor=none;fillColor=none;fontColor=#000000;" vertex="1" parent="1">
          <mxGeometry x="571" y="292" width="170" height="20" as="geometry" />
        </mxCell>
      </root>
    </mxGraphModel>
  </diagram>
</mxfile>
